<?xml version="1.0" encoding="UTF-8"?>
<svg id="Layer_1" data-name="Layer 1" xmlns="http://www.w3.org/2000/svg" viewBox="0 0 505.38 142.54">
  <defs>
    <style>
      .cls-1 {
        fill: #e15647;
      }

      .cls-2 {
        fill: #ffc434;
      }

      .cls-3 {
        fill: #60ab60;
      }
    </style>
  </defs>
  <g>
    <rect x="12.71" y="14.08" width="24.44" height="116.65"/>
    <path d="M134.16,110.17l-.3,20.56H52.5v-17.62c29-29.06,53.83-48.73,53.83-65.12,0-11-4.74-15.97-15.8-15.97-8.4,0-19.27,6.55-25.24,12.52l-13.23-15.52c10.95-11.93,24.21-16.09,36.68-17.03,25.27-1.91,41.15,11.57,41.15,33.47,0,19.16-27.93,45.52-48.39,64.71h52.66Z"/>
    <path d="M147.62,14.08h38.39c23.48,0,41.73,8.73,41.73,37.09s-20.03,38.47-41.74,38.65l-13.89-.09v41.01h-24.49V14.08ZM184.58,70.21c13.42,0,19.79-6.48,19.79-18.61s-6.9-16.56-19.79-16.56h-12.48v35.17h12.48Z"/>
  </g>
  <g>
    <circle class="cls-3" cx="271.21" cy="40" r="27.06"/>
    <circle class="cls-2" cx="336.68" cy="40" r="27.06"/>
    <circle class="cls-3" cx="401.15" cy="40" r="27.06"/>
    <circle class="cls-1" cx="465.62" cy="40" r="27.06"/>
    <circle class="cls-2" cx="271.21" cy="102.54" r="27.06"/>
    <circle class="cls-1" cx="336.68" cy="102.54" r="27.06"/>
    <circle class="cls-2" cx="401.15" cy="102.54" r="27.06"/>
    <circle class="cls-3" cx="465.62" cy="102.54" r="27.06"/>
  </g>
</svg>