<?xml version="1.0" encoding="utf-8"?>
<!-- Generator: Adobe Illustrator 27.1.1, SVG Export Plug-In . SVG Version: 6.00 Build 0)  -->
<svg version="1.1"
	 id="svg3039" xmlns:rdf="http://www.w3.org/1999/02/22-rdf-syntax-ns#" xmlns:dc="http://purl.org/dc/elements/1.1/" xmlns:inkscape="http://www.inkscape.org/namespaces/inkscape" xmlns:svg="http://www.w3.org/2000/svg" xmlns:cc="http://creativecommons.org/ns#" xmlns:sodipodi="http://sodipodi.sourceforge.net/DTD/sodipodi-0.dtd" inkscape:version="0.48.1 r9760"
	 xmlns="http://www.w3.org/2000/svg" xmlns:xlink="http://www.w3.org/1999/xlink" x="0px" y="0px" viewBox="0 0 1500 2000"
	 style="enable-background:new 0 0 1500 2000;" xml:space="preserve">
<style type="text/css">
	.st0{fill:#030302;}
	.st1{fill:#FCFC00;}
	.st2{fill:#FEFEFE;}
	.st3{fill:#FC003B;}
	.st4{fill:#F4B0A1;}
	.st5{fill:#9CC59C;}
	.st6{fill:#566356;}
</style>
<sodipodi:namedview  bordercolor="#666666" borderopacity="1" gridtolerance="10" guidetolerance="10" id="namedview3041" inkscape:current-layer="svg3039" inkscape:cx="224" inkscape:cy="308" inkscape:pageopacity="0" inkscape:pageshadow="2" inkscape:window-height="649" inkscape:window-maximized="0" inkscape:window-width="1015" inkscape:window-x="0" inkscape:window-y="0" inkscape:zoom="0.48051948" objecttolerance="10" pagecolor="#ffffff" showgrid="false">
	</sodipodi:namedview>
<path class="st0" d="M1278.1,1330.4c-1.3,4-1.1,8.2,0.5,12c7.3,17.5,24.3,72.6-28.7,115.5c-2.6,2.1-4.1,5.1-4.4,8.3
	c-0.8,8.9-5,27.6-24.6,41.8c-4.8,3.5-7.2,9.4-6.1,15.2l16.6,84.3c1.2,6.3,1.7,12.7,1.1,19.1c-2.2,27.9-13.5,105.4-70.1,159.5
	c-5.2,4.9-5.3,13.3-0.3,18.5l43.5,46c11.7,12.4,14.4,30.7,6.8,46c-3.3,6.6-8.3,12.1-14.3,16c-6,3.9-13.1,6.1-20.5,6.4l-395.5,14.8
	c-3.6,0.1-7.1-0.9-10-3l-24.1-17.2c-1.9-1.4-4.6-1.3-6.4,0.2l-19.6,16.4c-2.9,2.4-6.6,3.8-10.4,3.8l-362.5,0
	c-12.4,0-24.7-4.6-33.3-13.5c-8.6-8.8-12.8-20.2-12.8-31.5c0-9.8,3.2-19.7,9.6-27.8l46-58.5c4.2-5.4,4.4-12.8,0.5-18.4
	c-26.7-38.1-120.3-187.9-50.9-326.4c2.5-4.9,2-10.7-1.2-15.2l-31.1-44c-1.1-1.6-2.4-3-3.7-4.3L47.7,1180
	c-12.7-12.1-11.2-32.8,3.1-43l303.5-215.9c0.8-0.6,0.9-1.7,0.3-2.5c-40.1-45.8-72.4-98.7-94.7-156.5C237.3,703.8,225,640.3,225,574
	c0-290.1,236.2-525.1,526.7-523.2c286.4,1.9,519.6,236.7,519.7,523.1c0,104.7-30.7,202.3-83.7,284.1c-3,4.6-2.4,10.8,1.7,14.6
	c37.4,34.9,130.7,123.5,167.2,173.4c4.9,6.7,6.3,15.5,3.8,23.4L1278.1,1330.4z"/>
<path class="st1" d="M1188.9,565.6c0,242.4-196.5,438.9-439,438.9c-30.6,0-60.5-3.1-89.4-9.1c-12.1-2.5-24.3,4.1-28.9,15.7
	l-110.8,282.4l-67.8-30.7L556.4,985c4.4-12-0.6-25.4-11.9-31.4c-143.3-76-239.4-229-233.3-403.8c8.2-234,201.4-421.5,435.5-423.2
	C990.7,125,1188.9,322.2,1188.9,565.6z"/>
<circle class="st0" cx="933.6" cy="462.6" r="157.6"/>
<path class="st2" d="M1046.5,465.2c0,50.5-33.1,93.2-78.7,107.6c2.8-7.3,4.3-15.2,4.3-23.5c0-36.5-29.6-66-66.1-66
	c-30.4,0-56,20.5-63.7,48.4c-13.6-18.7-21.7-41.6-21.7-66.5c0-62.3,50.6-112.9,112.9-112.9C996,352.3,1046.5,402.9,1046.5,465.2z"/>
<circle class="st0" cx="553.9" cy="475.4" r="157.6"/>
<path class="st2" d="M441,478.1c0,50.5,33.1,93.2,78.7,107.6c-2.8-7.3-4.3-15.2-4.3-23.5c0-36.5,29.6-66,66.1-66
	c30.4,0,56,20.5,63.7,48.4c13.6-18.7,21.7-41.6,21.7-66.5c0-62.3-50.6-112.9-112.9-112.9C491.5,365.2,441,415.7,441,478.1z"/>
<path class="st3" d="M444.7,1144.3c9.1-22.2,35.9-89.3,47.2-138.2c2.4-10.3-1.1-21-9.1-27.9h0c-8.7-7.6-21.2-9.2-31.5-4
	c-55.2,27.6-227.4,117.3-283.6,187.3c-2.7,3.4-3,8.1-0.9,11.8c10.4,17.9,45.5,71.4,115.8,119c4.3,2.9,10.1,2.6,14-0.9l29.8-26.9
	c4.8-4.3,5-11.7,0.5-16.3l-15.7-16.1c-11.7-12-12.5-31-1.8-43.8c16.3-19.4,41.3-45,65.8-52.8c8.2-2.6,17-2.2,25.1,0.8l33.6,12.5
	C438.3,1150.5,443,1148.5,444.7,1144.3z"/>
<path class="st3" d="M664.9,1059.2l-91.1,239.9c-1.8,4.6-1,9.8,2.1,13.7l54.7,70.5c1.7,2.2,3.9,3.8,6.5,4.7
	c29.4,10.3,216.3,70.9,345.2-6.7c5.8-3.5,9.3-9.8,9.5-16.6c0.6-26.7,7.2-96.6,58.9-116.9c7-2.7,11.5-9.5,12-16.9
	c1.9-28.4,11.9-91.9,64.2-92.6c0,0,45.6-4.3,33.2,120.3c-0.3,3.3,1.1,6.6,3.7,8.7l17,12.9c4.9,3.8,12.1,1.9,14.6-3.8l34.4-78.6
	c14.9-34,21.5-71.2,18-108.2c-5.8-60.8-39-136.2-163.7-151.8c-10.2-1.3-20.4,1.8-28.3,8.4c-36.5,30.8-162.6,120.7-376.4,104
	C673,1049.6,667.1,1053.3,664.9,1059.2z"/>
<path class="st4" d="M529.4,1392.3c-19.4-16.9-90.2-74.2-152.5-67.2c-6.4,0.7-12.7,3.2-17.4,7.6c-7.8,7.2-13.8,21.1,5.3,45.1
	c1.1,1.3,2.2,2.6,3.5,3.7c10.7,9.6,60.6,46.9,159.6,17.5C530.8,1398,531.7,1394.3,529.4,1392.3z"/>
<path class="st4" d="M1059.7,1416.9c-6.4-22.7-22.8-91.5,4.7-113.8c5.2-4.2,12-5.8,18.6-4.9c20.7,2.8,78.7,15.6,97.6,73.3
	c2.9,8.9,0.5,18.8-6.3,25.3c-12.5,12-41.1,27.6-104.7,27.6C1065,1424.3,1061,1421.3,1059.7,1416.9z"/>
<path class="st5" d="M374.1,1474.2c23.7,5.9,121.4,24.8,244.2-23.8c6.2-2.5,13.2-2.3,19.3,0.6c25.1,11.6,88.4,49.8,99.9,144
	c0.2,1.5,0.2,2.9,0.1,4.4c-1.2,21.3-16.1,178.4-202.8,164.3c-30.4-2.3-58.6-16.4-78.6-39.3c-40.1-46-101.8-136.3-88.4-245.9
	C368.2,1475.5,371.2,1473.4,374.1,1474.2z"/>
<path class="st5" d="M1003.7,1422.6c4.4,12.1,13.1,34.6,20.3,46.6c2,3.3,4.9,6,8.4,7.6c10.4,4.9,36.4,12.8,81.5,0.2
	c3.3-0.9,6.6,1.7,6.5,5.1l-5,141.6c-0.2,4.8-1.7,9.5-4.5,13.5c-15.9,22.8-75.2,100.5-160.4,121.8c-7,1.8-14.4,0.2-20.3-3.9
	c-25.8-18.4-99.4-76-141-162.7c-3.2-6.6-4.5-14-4-21.3c1.8-23.3,8-77.7,27.7-112.4c3.5-6.1,10-9.7,17-9.5
	c25.9,0.7,95.8-0.6,163-31.1C997.2,1416.2,1002.1,1418.3,1003.7,1422.6z"/>
<path class="st6" d="M364,1651.2c10.5,16.1,61.9,94.1,97.9,129c7.3,7,16.5,11.5,26.5,13c45.3,6.7,186.9,17,259.3-97.4
	c1.3-2,4.3-1.5,4.8,0.8c3,12.5,9.3,41.2,9.5,58.4c0,2.4-0.4,4.8-1.4,7c-4.9,10.8-25.1,41.4-100.4,52.3c-0.7,0.1-1.4,0.2-2.1,0.2
	c-11.1,0.9-105.2,8.3-183.1-5.8c-11.6-2.1-22-8.2-29.4-17.3c-21.9-27.1-69.2-89.6-82.7-139.7C362.8,1651.1,363.6,1650.7,364,1651.2z
	"/>
<path class="st6" d="M795.3,1665.7c12.8,22,58.8,95.5,112.2,116.8c12.7,5.1,26.7,6.3,40.2,3.9c32.7-5.8,116.7-27.9,174.3-106.9
	c15.1-20.7,23.7-45.4,25-70.9l2.6-50.1c0.1-2.4,2.9-3.5,4.7-1.9c5.2,4.9,13.4,16.3,15.9,41.1c2.4,23.3-2,46.8-11.9,68.1
	c-23.9,51.3-89.6,155.4-232.2,169.9c-18.8,1.9-37.7-1.3-54.7-9.5c-36-17.6-89.6-60.6-80.2-159.4
	C791.2,1664.4,794.2,1663.7,795.3,1665.7z"/>
</svg>
